<svg xmlns="http://www.w3.org/2000/svg" xml:space="preserve" width="800" height="800" viewBox="0 0 512 512"><path d="M467.862 512H44.138a8.829 8.829 0 0 1-8.828-8.828v-17.655a8.829 8.829 0 0 1 8.828-8.828h423.724a8.829 8.829 0 0 1 8.828 8.828v17.655a8.829 8.829 0 0 1-8.828 8.828z" style="fill:#ffa055"/><path d="M269.3 0h-26.6a17.655 17.655 0 0 0-16.928 12.64L88.276 476.69h335.448L286.228 12.64A17.655 17.655 0 0 0 269.3 0z" style="fill:#ffb45a"/><path d="M171.975 194.207h168.05l-20.924-70.621H192.899zm-52.313 176.552h272.676l-20.925-70.621H140.587z" style="fill:#ffebbe"/><path d="M219.055 35.31h73.89l-5.231-17.655h-63.428zm-10.462 35.311h94.814l-5.231-17.655h-84.352z" style="fill:#ffa055"/></svg>